simulation
nRows=31
nColumns=15
endheader
time  TH_x TH_y TH_z SC_y  SC_z  SC_x  AC_y  AC_z  AC_x  GH_y  GH_z  GH_yy  EL_x  PS_y
0.000000  0.000000  0.000000  0.000000  -29.182162  -0.971232  1.386229  55.157428  4.997755  -6.378238  24.096904  8.800003  23.325273  25.503081  0.000000
0.010000  0.000000  0.000000  0.000000  -29.142511  -1.019278  1.437782  55.238424  4.875243  -6.438772  24.284022  9.070014  22.762868  25.527309  0.000000
0.020000  0.000000  0.000000  0.000000  -29.104090  -1.065529  1.491715  55.320913  4.761574  -6.495878  24.474424  9.346473  22.194008  25.550191  0.000000
0.030000  0.000000  0.000000  0.000000  -29.066883  -1.110009  1.547974  55.404858  4.656610  -6.549610  24.668027  9.629230  21.618889  25.571749  0.000000
0.040000  0.000000  0.000000  0.000000  -29.030873  -1.152743  1.606506  55.490220  4.560213  -6.600018  24.864747  9.918139  21.037702  25.592004  0.000000
0.050000  0.000000  0.000000  0.000000  -28.996044  -1.193755  1.667258  55.576964  4.472246  -6.647155  25.064504  10.213051  20.450642  25.610974  0.000000
0.060000  0.000000  0.000000  0.000000  -28.962382  -1.233071  1.730178  55.665051  4.392573  -6.691072  25.267215  10.513821  19.857898  25.628682  0.000000
0.070000  0.000000  0.000000  0.000000  -28.929868  -1.270714  1.795214  55.754444  4.321060  -6.731821  25.472799  10.820304  19.259661  25.645146  0.000000
0.080000  0.000000  0.000000  0.000000  -28.898489  -1.306709  1.862314  55.845108  4.257571  -6.769451  25.681176  11.132356  18.656118  25.660387  0.000000
0.090000  0.000000  0.000000  0.000000  -28.868229  -1.341080  1.931427  55.937006  4.201973  -6.804015  25.892266  11.449833  18.047457  25.674425  0.000000
0.100000  0.000000  0.000000  0.000000  -28.839070  -1.373851  2.002501  56.030101  4.154133  -6.835562  26.105990  11.772594  17.433864  25.687280  0.000000
0.110000  0.000000  0.000000  0.000000  -28.811000  -1.405047  2.075487  56.124358  4.113919  -6.864143  26.322267  12.100496  16.815524  25.698971  0.000000
0.120000  0.000000  0.000000  0.000000  -28.784001  -1.434690  2.150333  56.219740  4.081199  -6.889806  26.541021  12.433399  16.192619  25.709518  0.000000
0.130000  0.000000  0.000000  0.000000  -28.758058  -1.462805  2.226990  56.316214  4.055844  -6.912602  26.762171  12.771163  15.565331  25.718941  0.000000
0.140000  0.000000  0.000000  0.000000  -28.733157  -1.489415  2.305409  56.413742  4.037722  -6.932579  26.985643  13.113651  14.933842  25.727258  0.000000
0.150000  0.000000  0.000000  0.000000  -28.709281  -1.514543  2.385539  56.512291  4.026706  -6.949787  27.211357  13.460723  14.298330  25.734489  0.000000
0.160000  0.000000  0.000000  0.000000  -28.686417  -1.538213  2.467333  56.611825  4.022666  -6.964273  27.439237  13.812244  13.658974  25.740653  0.000000
0.170000  0.000000  0.000000  0.000000  -28.664549  -1.560447  2.550741  56.712311  4.025476  -6.976087  27.669208  14.168077  13.015951  25.745770  0.000000
0.180000  0.000000  0.000000  0.000000  -28.643662  -1.581269  2.635716  56.813713  4.035008  -6.985277  27.901194  14.528087  12.369436  25.749857  0.000000
0.190000  0.000000  0.000000  0.000000  -28.623741  -1.600701  2.722209  56.915999  4.051138  -6.991889  28.135120  14.892141  11.719603  25.752934  0.000000
0.200000  0.000000  0.000000  0.000000  -28.604772  -1.618767  2.810173  57.019133  4.073738  -6.995971  28.370910  15.260105  11.066626  25.755019  0.000000
0.210000  0.000000  0.000000  0.000000  -28.586740  -1.635488  2.899561  57.123083  4.102687  -6.997571  28.608492  15.631846  10.410675  25.756132  0.000000
0.220000  0.000000  0.000000  0.000000  -28.569631  -1.650887  2.990327  57.227814  4.137858  -6.996736  28.847792  16.007234  9.751923  25.756289  0.000000
0.230000  0.000000  0.000000  0.000000  -28.553429  -1.664986  3.082423  57.333295  4.179131  -6.993511  29.088736  16.386137  9.090537  25.755511  0.000000
0.240000  0.000000  0.000000  0.000000  -28.538121  -1.677808  3.175804  57.439492  4.226383  -6.987943  29.331252  16.768427  8.426685  25.753814  0.000000
0.250000  0.000000  0.000000  0.000000  -28.523692  -1.689374  3.270424  57.546373  4.279492  -6.980077  29.575268  17.153975  7.760535  25.751217  0.000000
0.260000  0.000000  0.000000  0.000000  -28.510128  -1.699707  3.366237  57.653905  4.338338  -6.969961  29.820712  17.542653  7.092251  25.747739  0.000000
0.270000  0.000000  0.000000  0.000000  -28.497416  -1.708828  3.463199  57.762056  4.402802  -6.957638  30.067513  17.934335  6.421997  25.743396  0.000000
0.280000  0.000000  0.000000  0.000000  -28.485540  -1.716758  3.561265  57.870794  4.472764  -6.943154  30.315601  18.328893  5.749937  25.738206  0.000000
0.290000  0.000000  0.000000  0.000000  -28.474487  -1.723519  3.660390  57.980087  4.548107  -6.926554  30.564905  18.726205  5.076231  25.732188  0.000000
0.300000  0.000000  0.000000  0.000000  -28.464244  -1.729133  3.760531  58.089905  4.628713  -6.907882  30.815356  19.126145  4.401039  25.725358  0.000000
